<?xml version="1.0" standalone="no"?>
<!DOCTYPE svg PUBLIC "-//W3C//DTD SVG 20010904//EN"
 "http://www.w3.org/TR/2001/REC-SVG-20010904/DTD/svg10.dtd">
<svg version="1.0" xmlns="http://www.w3.org/2000/svg"
 width="103.000000pt" height="103.000000pt" viewBox="0 0 103.000000 103.000000"
 preserveAspectRatio="xMidYMid meet">
<metadata>
Created by potrace 1.14, written by Peter Selinger 2001-2017
</metadata>
<g transform="translate(0.000000,103.000000) scale(0.100000,-0.100000)"
fill="#000000" stroke="none">
<path d="M433 955 c-126 -28 -238 -115 -300 -230 -31 -60 -59 -143 -50 -152 3
-2 22 7 44 21 21 14 85 46 143 72 58 26 106 48 108 49 1 1 -5 16 -14 32 -10
16 -15 36 -12 44 3 8 51 26 115 42 109 28 213 72 220 93 9 28 -168 49 -254 29z"/>
<path d="M761 866 c-6 -16 -20 -41 -31 -56 -18 -25 -18 -29 -4 -34 27 -10 34
-7 50 28 13 26 14 40 6 62 l-10 29 -11 -29z"/>
<path d="M757 666 c-52 -60 -148 -135 -285 -220 l-93 -59 31 -32 c18 -19 29
-38 26 -44 -4 -6 -61 -36 -127 -68 -65 -31 -119 -59 -119 -63 0 -3 11 -17 24
-29 l25 -23 169 96 c93 54 178 104 188 112 18 13 18 15 -9 35 -57 43 -55 53
25 112 107 79 208 188 208 225 0 23 -16 12 -63 -42z"/>
<path d="M955 480 c-3 -5 -1 -10 4 -10 6 0 11 5 11 10 0 6 -2 10 -4 10 -3 0
-8 -4 -11 -10z"/>
<path d="M895 304 c-89 -76 -300 -162 -487 -201 -49 -9 -88 -21 -88 -24 0 -4
21 -16 48 -26 35 -13 74 -18 152 -18 97 0 110 2 173 32 85 40 174 124 217 204
17 33 30 62 28 64 -1 2 -21 -12 -43 -31z"/>
</g>
</svg>
